<?xml version="1.0" encoding="utf-8"?>
<!-- Generator: Adobe Illustrator 16.0.0, SVG Export Plug-In . SVG Version: 6.00 Build 0)  -->
<!DOCTYPE svg PUBLIC "-//W3C//DTD SVG 1.1//EN" "http://www.w3.org/Graphics/SVG/1.1/DTD/svg11.dtd">
<svg version="1.1" id="Layer_1" xmlns="http://www.w3.org/2000/svg" xmlns:xlink="http://www.w3.org/1999/xlink" x="0px" y="0px"
	 width="117.333px" height="141.333px" viewBox="0 0 117.333 141.333" enable-background="new 0 0 117.333 141.333"
	 xml:space="preserve">
<g id="XMLID_73_">
	<path id="XMLID_2873_" d="M6.084,93.791c1.656-1.512,3.011-2.748,5.108-4.662c-2.458-0.26-3.996-0.486-5.54-0.564
		c-1.094-0.055-2.269-0.162-2.121-1.492c0.144-1.295,1.361-1.244,2.417-1.07c0.873,0.145,1.773,0.189,2.614,0.436
		c3.225,0.941,5.972-0.025,8.5-1.992c3.581-2.783,7.164-5.564,10.746-8.346c-0.432-1.098-0.863-2.197-1.276-3.248
		c6.044-3.836,12.025-7.209,17.959-11.739c-5.491-2.996-8.642-7.35-11.108-12.087c-7.995,0.581-12.337-2.033-12.874-7.564
		c-0.517-5.334,3.878-9.51,10.857-10.189c1.158-2.822,2.271-5.743,3.542-8.593C40.096,11.057,48.62,4.12,61.693,3.125
		c7.711-0.586,14.909,0.893,21.388,4.835c7.868,4.789,11.028,10.117,12.643,19.549c3.521,0.283,7.411,0.574,9.187,4.369
		c0.865,1.848,1.554,4.274,1.109,6.15c-1.673,7.055-3.539,8.827-12.889,7.978c-2.924,6.045-5.766,12.25-11.888,16.342
		c0.994,1,1.657,1.715,2.37,2.375c3.236,3.004,6.518,5.959,9.72,8.999c2.153,2.043,2.078,2.287-0.513,4.121
		c-0.305,0.215-0.563,0.494-1.109,0.98c1.002,1.402,1.971,2.832,3.021,4.199c0.613,0.799,1.337,1.516,2.049,2.23
		c7.961,8,5.684,7.006,15.939,6.461c0.33-0.018,0.675,0.229,1.094,0.381c-0.377,3.789-3.781,1.9-5.834,3.084
		c0.695,0.617,1.414,0.988,1.676,1.566c0.25,0.551,0.282,1.582-0.063,1.916c-0.36,0.352-1.463,0.396-1.924,0.094
		c-1.01-0.666-1.82-1.635-3.35-3.084c0.131,2,0.344,3.205,0.231,4.377c-0.058,0.6-0.698,1.141-1.075,1.709
		c-0.573-0.516-1.723-1.176-1.635-1.525c1.461-5.775-2.676-8.787-5.889-12.258c-1.954-2.109-3.916-4.213-6.09-6.551
		c-0.877,1.225-1.599,2.203-2.287,3.203c-1.25,1.816-1.939,1.93-3.57,0.605c-1.213-0.984-2.453-1.936-4.086-3.219
		c-0.881,3.438-0.186,6.152-0.08,8.846c0.096,2.484,0.926,4.936-0.285,7.438c-0.37,0.768,0.053,1.979,0.266,2.953
		c0.805,3.703,1.699,7.387,2.499,11.09c0.255,1.176,0.317,2.395,0.491,3.77c-3.883,0.537-7.35,1.016-11.033,1.523
		c0.342,5.854,0.672,11.506,0.979,16.771c3.069,2.623,6.242-0.457,9.108,1.027c-0.218,2.412-2.042,2.508-3.571,2.732
		c-1.487,0.219-3.023,0.092-4.535,0.156c-2.469,0.104-3.225-0.412-3.448-2.852c-0.218-2.387-0.169-4.795-0.301-7.189
		c-0.181-3.256-0.421-6.51-0.67-10.271c-2.877,0.15-5.317,0.275-8.097,0.42c-0.426-2.996-0.836-5.877-1.246-8.758
		c-0.268-0.016-0.535-0.031-0.803-0.047c-1.034,2.799-2.068,5.6-3.216,8.707c-1.723-0.148-3.455-0.283-5.184-0.447
		c-2.813-0.27-3.469-0.072-3.99,2.725c-0.963,5.178-3.579,10.018-3.167,15.49c0.039,0.523-0.807,1.604-1.216,1.59
		c-2.756-0.084-5.507-0.373-8.252-0.666c-0.234-0.023-0.412-0.566-0.695-0.982c2.032-2.619,4.901,0.512,7.346-1.467
		c1.661-5.125,2.94-10.82,4.202-17.172c-2.705,0.209-4.793,0.369-7.008,0.539c-1.36-0.92-1.532-2.105-1.206-3.83
		c1.006-5.324,1.515-10.75,2.678-16.035c0.535-2.43,1.57-4.771,1.74-7.309c0.243-3.631,0.463-7.264,0.739-11.631
		c-1.892,1.064-3.33,1.885-4.779,2.686c-3.691,2.039-3.95,1.939-5.747-1.83c-0.261-0.547-0.777-0.973-1.311-1.617
		c-0.798,0.297-1.689,0.453-2.376,0.912c-3.673,2.463-7.284,5.018-10.942,7.504c-1.52,1.031-2.142,2.25-1.728,4.17
		c0.384,1.779,0.331,3.65,0.487,5.699c-1.543-0.633-1.728-1.027-3.012-5.791c-1.189,1.133-2.245,2.141-3.302,3.145
		C8.38,94.841,8.379,94.841,6.084,93.791z M91.969,21.76c-1.984,0.166-3.582,0.337-5.184,0.423
		c-2.512,0.135-5.032,0.368-7.539,0.282c-7.539-0.257-14.742-1.934-21.417-5.557c-1.491-0.809-2.643-0.781-4.092,0.392
		c-5.312,4.296-11.072,7.917-17.28,10.817c-0.79,0.369-1.636,1.131-1.954,1.915c-3.888,9.574,0.909,22.91,9.938,28.103
		c6.955,4.002,14.402,6.141,22.415,5.729c3.058-0.158,6.188-0.078,9.135-1.707c10.27-5.67,15.286-14.625,16.65-25.921
		c0.332-2.748,0.381-5.553,0.287-8.322C92.861,25.947,92.336,23.997,91.969,21.76z M79.046,64.259
		c-2.374,0.842-4.214,1.756-6.154,2.104c-1.712,0.307-2.71,1.096-3.419,2.549c-0.331,0.68-0.72,1.346-1.177,1.945
		c-2.52,3.305-7.05,4.403-9.911,2.167c-1.101-0.859-1.723-2.374-2.458-3.649c-0.748-1.297-1.029-3.17-2.114-3.896
		c-1.948-1.303-4.285-2.322-6.581-2.676c-1.063-0.166-2.405,1.52-3.633,2.348c-0.418,0.281-0.889,0.482-1.313,0.756
		c-3.987,2.572-7.968,5.15-12.111,7.831c1.373,2.246,2.536,4.148,3.969,6.49c3.466-1.879,6.701-3.635,9.996-5.422
		c0.9,1.455,1.18,2.422,0.675,4.029c-1.698,5.416-1.285,11.07-1.59,16.695c11.708-0.275,22.979-0.541,34.476-0.813
		c-0.383-5.869-0.73-11.191-1.139-17.432c3.454,1.994,6.186,3.57,9.092,5.25c1.359-1.9,2.476-3.566,3.703-5.145
		c1.25-1.605,1.049-3.043-0.375-4.324C85.628,70.044,82.229,67.073,79.046,64.259z M54.167,115.142
		c2.001-3.541,3.483-7.107,4.397-10.941c0.148-0.621,1.16-1.037,1.773-1.549c0.422,0.564,0.961,1.078,1.229,1.709
		c0.237,0.557,0.138,1.246,0.247,1.867c0.519,2.949,1.059,5.895,1.611,8.949c5.763,0.285,11.044-0.51,16.757-1.67
		c-1.208-5.389-2.328-10.381-3.425-15.27c-9.153-1.227-30.398-0.529-35.173,1.197c-0.749,4.984-1.521,10.115-2.299,15.297
		C44.449,114.875,49.104,115.003,54.167,115.142z M54.684,12.445c11.168,5.561,22.461,9.647,35.193,5.924
		C84.659,7.953,71.242,4.127,57.416,6.214C47.973,7.64,38.349,16.879,37.539,24.402C43.981,21.26,49.927,17.879,54.684,12.445z
		 M93.542,41.833c2.551,1.945,5.618,2.264,7.204,1.245c3.734-2.399,4.171-9.397,0.541-11.794c-1.085-0.716-2.934-0.77-4.258-0.435
		c-0.752,0.191-1.15,1.783-1.76,2.832c2.485,0.897,5.061,1.098,4.963,3.943C100.107,41.264,97.158,41.621,93.542,41.833z
		 M31.593,45.945c-2.342-0.804-5.107-0.942-5.297-3.705c-0.184-2.689,2.32-3.258,4.414-4.06c-0.245-1.513,1.173-3.444-0.774-4.083
		c-1.105-0.362-2.706,0.742-4.067,1.232c-0.342,0.124-0.658,0.387-0.923,0.65C22.9,38.01,22.502,41.494,24.01,44
		C25.424,46.349,28.07,47.125,31.593,45.945z M67.444,66.8c-3.562-0.172-6.618-0.322-9.938-0.482
		c0.821,2.508,1.207,4.904,4.08,5.268C63.76,71.859,65.857,70.216,67.444,66.8z M31.278,42.75c-0.246-0.724-0.363-1.486-0.536-1.499
		c-0.517-0.038-1.075,0.175-1.568,0.397c-0.086,0.039-0.002,0.85,0.121,0.884C29.824,42.682,30.397,42.673,31.278,42.75z
		 M97.814,38.434c-0.132-0.367-0.264-0.735-0.396-1.102c-0.754,0.272-1.508,0.543-2.262,0.815c0.093,0.297,0.185,0.594,0.276,0.891
		C96.227,38.837,97.021,38.636,97.814,38.434z"/>
	<path id="XMLID_2208_" d="M47.422,47.048c-0.023-3.038,2.558-3.371,4.986-4.693c-0.514,1.421-0.838,2.321-1.146,3.171
		c7.827,6.73,15.966,5.307,22.647,2.106c2.504-1.199,4.209-3.095,3.671-6.448c2.37,0.959,3.562,2.385,4.101,4.397
		c-5.084,3.979-10.253,7.248-16.929,7.496C58.179,53.323,53.067,49.799,47.422,47.048z"/>
	<path id="XMLID_2207_" d="M77.758,31.444c-0.914,1.409-3.873,2.063-4.868,1.524c-1.198-0.649-1.662-2.489-0.907-3.598
		c0.929-1.366,3.02-1.793,4.301-0.598C77.062,29.498,77.377,30.718,77.758,31.444z"/>
	<path id="XMLID_2206_" d="M55.697,33.563c-1.385-0.381-2.524-0.466-3.4-0.991c-1.237-0.742-1.318-2.469-0.412-3.651
		c0.87-1.133,3.155-1.737,4.02-0.941c0.401,0.369,0.723,1.094,0.676,1.622C56.485,30.699,56.119,31.772,55.697,33.563z"/>
</g>
</svg>
