<?xml version="1.0" encoding="utf-8"?>
<!-- Generator: Adobe Illustrator 16.0.0, SVG Export Plug-In . SVG Version: 6.00 Build 0)  -->
<!DOCTYPE svg PUBLIC "-//W3C//DTD SVG 1.1//EN" "http://www.w3.org/Graphics/SVG/1.1/DTD/svg11.dtd">
<svg version="1.1" id="Layer_1" xmlns="http://www.w3.org/2000/svg" xmlns:xlink="http://www.w3.org/1999/xlink" x="0px" y="0px"
	 width="212px" height="130px" viewBox="161.167 15.833 212 130" enable-background="new 161.167 15.833 212 130"
	 xml:space="preserve">
<g>
	<path fill="#231F20" d="M352.687,35.19c-0.323-0.963-0.839-1.844-1.495-2.629c-2.531-3.805-6.264-6.737-10.798-7.272
		c-4.589-0.542-8.979,2.441-12.395,5.16c-3.595,2.862-6.616,6.36-9.214,10.138c-2.938,4.273-5.336,8.899-7.462,13.622
		c-2.107,4.68-3.646,9.748-6.716,13.912c-1.881-1.443-5.003-2.659-10.104-3.166c-0.414-0.051-0.824-0.102-1.225-0.15
		c-1.559-0.19-3.119-0.357-4.681-0.517c0.288-1.3,0.618-3.156,0.113-4.491c0.007-0.143,0.017-0.285,0.022-0.429
		c0.016-0.364-0.201-0.619-0.55-0.691c-0.16-0.033-0.323-0.06-0.483-0.092c-0.031-0.01-0.063-0.013-0.094-0.018
		c-2.944-0.583-5.922-1-8.888-1.461c-2.03-0.316-6.095-1.666-8.103-1.223c-1.891,0.417-1.826,4.456-1.992,6.507
		c-2.064-0.211-4.113-0.426-6.137-0.659c-7.87-0.908-33.877-3.907-38.477-4.438c-0.515-0.06-1.03-0.119-1.544-0.178
		c-8.6-1.885-17.009-3.418-25.668-3.636c-4.183-0.724-9.55-1.776-10.696,3.423c-0.624,2.829-0.563,5.895-0.75,8.776
		c-0.112,1.714-0.205,3.43-0.292,5.145c-1.234,10.331-3.676,31.043-4.802,40.415c-0.357,1.744-0.643,3.493-0.724,5.236
		c-0.033,0.714-0.01,1.42,0.083,2.101c-0.029,1.832-0.05,3.981-0.007,4.064c0.927,1.744,1.577,2.573,8.019,3.508
		c3.348,0.486,6.73,0.894,10.11,1.286c4.113,0.852,8.253,1.577,12.409,2.187c16.247,2.386,32.686,3.253,49.094,4.053
		c7.467,0.696,13.69,1.252,17.07,1.511c5.628,0.432,11.816,1.589,17.445,1.172c2.362-0.174,4.589-1.239,4.179-3.935
		c-0.006-0.036,0.282-1.853,0.745-4.706c0.592-1.459,1.028-2.991,1.397-4.487c1.217-4.924,2.066-9.966,2.865-14.971
		c0.96-6.018,1.728-12.064,2.423-18.118c0.289-2.509,0.705-5.086,1.029-7.668c0.352-2.118,0.604-4.232,0.667-6.321
		c0.053-0.191,0.098-0.383,0.134-0.577c0.121,0.034,0.252,0.047,0.402,0.008c11.903-3.14,24.477-6.282,35.046-12.897
		c6.906-4.322,12.681-11.163,12.132-19.757C354.615,40.372,353.885,37.682,352.687,35.19z M286.095,59.485
		c0.188,0.079,0.355,0.164,0.482,0.262c1.02,0.783,1.026,2.078,0.882,3.403c-0.07,0.378-0.147,0.721-0.212,1.001
		c-0.592-0.058-1.184-0.118-1.775-0.171c0.356-1.438,0.544-2.914,0.633-4.39C286.107,59.557,286.101,59.521,286.095,59.485z
		 M282.746,58.871c0.889,0.078,1.779,0.183,2.508,0.353c-0.063,0.075-0.108,0.164-0.115,0.257c-0.098,1.494-0.348,2.947-0.621,4.41
		c-0.732-0.065-1.466-0.124-2.197-0.185C282.524,62.188,282.89,60.427,282.746,58.871z M279.331,58.572
		c0.617,0.099,1.585,0.156,2.627,0.234c-0.484,1.488-0.522,3.289-0.666,4.813c-0.952-0.077-1.903-0.149-2.855-0.22
		C278.941,61.918,279.352,60.183,279.331,58.572z M276.511,57.958c0.625,0.145,1.245,0.297,1.847,0.426
		c-0.302,1.649-0.483,3.288-0.943,4.934v0c-0.689-0.076-1.373-0.144-2.062-0.219c0.35-0.989,0.651-1.989,0.863-3.02
		C276.349,59.438,276.627,58.634,276.511,57.958z M275.642,57.766c-0.267,0.518-0.251,1.18-0.38,1.772
		c-0.255,1.171-0.609,2.318-1.017,3.445c-0.707-0.076-1.412-0.149-2.122-0.226c0.499-1.597,1.104-3.585,0.955-5.301
		C273.899,57.456,274.766,57.583,275.642,57.766z M272.309,57.503c-0.106,0.572-0.157,1.16-0.264,1.731
		c-0.215,1.162-0.51,2.298-0.87,3.421c-0.444-0.047-0.894-0.097-1.336-0.143C270.135,60.334,270.082,57.886,272.309,57.503z
		 M248.74,62.597c10.071,0.958,20.179,1.422,30.265,2.188c2.407,0.183,4.82,0.373,7.231,0.591c0.08,0.104,0.198,0.185,0.378,0.207
		c3.029,0.371,6.518,0.481,9.664,1.062c0.084,0.015,0.165,0.031,0.248,0.047c3.526,0.682,6.587,1.991,8.04,4.965
		c-11.913-1.206-56.093-3.175-63.671-9.961C243.499,62.042,246.111,62.348,248.74,62.597z M186.348,82.095
		c0.293-2.869,0.539-5.744,0.744-8.621c6.17,2.222,13.226,3.07,19.66,3.98c6.487,0.917,13.213,1.754,19.792,1.573
		c-0.215,0.193-0.423,0.388-0.626,0.589c-7.197,7.114-9.722,18.237-6.594,27.808c0.803,2.457,1.954,4.758,3.393,6.813
		c-6.825-0.396-32.868-5.426-40.357-5.771C184.108,99.746,185.442,90.943,186.348,82.095z M238.793,75.035
		c6.149-0.604,10.813,1.642,15.546,5.249c0.876,1.209,2.025,2.241,2.967,3.415c1.722,2.149,3.238,4.495,4.262,7.063
		c2.186,5.483,1.655,10.39,0.386,15.948c-0.871,1.939-2.009,3.811-3.359,5.58c-7.927,10.395-23.621,13.87-32.96,3.296
		c-7.698-8.716-8.121-22.185-1.468-31.605C227.596,79.122,232.8,75.623,238.793,75.035z M297.186,127.739
		c-0.027,0.062-0.052,0.124-0.08,0.185c-2.107,4.585-5.385,5.995-10.329,5.811c-4.49-0.168-8.98-0.472-13.468-0.707
		c-2.917-0.153-5.837-0.297-8.757-0.44c-9.253-0.785-18.502-1.635-27.743-2.555c-9.791-0.976-19.573-2.026-29.346-3.152
		c-4.484-0.516-8.964-1.059-13.444-1.611c-3.357-0.676-7.103-1.302-10.053-2.79c-1.733-0.876-2.59-2.198-2.934-3.732
		c0.043-2.093,0.205-4.213,0.437-6.339c0.212-0.938,0.442-1.846,0.631-2.689c9.376,1.121,30.342,5.087,41.733,5.986
		c4.13,5.389,9.865,8.246,17.117,7.902c4.901-0.231,9.531-2.108,13.431-5.035c7.44,0.447,36.623,3.423,43.737,3.788
		C297.807,124.153,297.498,125.946,297.186,127.739z M301.801,100.788c-1.135,6.831-2.312,13.654-3.494,20.477
		c-8.564-0.742-14.912-1.616-21.862-2.258c-6.816-0.628-13.427-2.077-20.31-1.861c4.231-3.74,7.389-8.761,8.764-14.153
		c1.501-5.891-0.416-11.44-3.465-16.488c-0.91-1.507-1.883-3.045-2.97-4.485c15.024,2.332,27.75,3.321,45.667,4.627
		C303.347,91.663,302.634,95.779,301.801,100.788z M305.448,76.653c-0.032,0.067-0.058,0.133-0.093,0.2
		c-0.128,0.252-0.079,0.484,0.046,0.665c-0.104,1.318-0.22,2.635-0.345,3.954c-0.306,1.615-0.635,3.087-0.81,4.154
		c-13.104-1.167-25.921-3.051-46.045-5.02c-0.305-0.03-4.011-3.193-6.219-4.208c-6.84-5.102-17.736-3.363-24.347,1.726
		c-0.005-0.001-0.008-0.003-0.013-0.003c-6.92-0.687-13.834-0.871-20.736-1.854c-6.643-0.944-13.118-2.898-19.716-3.91
		c0.099-1.476,0.191-2.955,0.266-4.433c0.196-3.822-0.319-9.806,2.919-12.595c0.019-0.009,0.038-0.019,0.057-0.027
		c0.782-0.353,1.646-0.4,2.598-0.127c3.762-0.173,7.999,0.921,11.747,1.354c3.671,0.423,7.342,0.845,11.013,1.269
		c2.54,0.292,5.079,0.584,7.619,0.877c5.167,1.084,10.34,2.008,15.55,2.75c5.634,6.717,17.347,6.762,25.129,7.663
		c13.422,1.554,27.484,3.197,41.002,3.887C305.373,74.023,305.502,75.244,305.448,76.653z M306.01,69.499
		c-0.209-0.268-0.444-0.534-0.717-0.794c2.73-3.568,4.337-7.728,6.133-11.825c1.96-4.472,4.089-8.882,6.671-13.034
		c2.346-3.771,5.084-7.319,8.343-10.348c3.609-3.357,9.216-7.835,14.486-6.677c1.777,0.391,3.39,1.141,4.817,2.15
		c-0.731-0.248-1.471-0.431-2.191-0.537c-5.349-0.79-10.721,1.867-14.519,5.476c-4.851,4.607-8.023,10.861-11.439,16.525
		C313.757,56.802,309.793,63.1,306.01,69.499z M335.686,63.896c-4.521,2.044-9.245,3.667-13.926,5.3
		c-4.776,1.667-9.574,3.452-14.439,4.84c0.06-0.744,0.021-1.671-0.303-2.651c0.201,0.073,0.434,0.073,0.674-0.045
		c6.836-3.344,13.813-6.353,20.901-9.117c5.248-2.045,10.647-4.134,15.019-7.789c3.758-3.141,6.852-7.46,7.384-12.443
		c0.451-4.221-0.836-9.457-4.998-11.398c-0.028-0.014-0.071,0.017-0.049,0.048c3.072,4.339,4.741,9.098,2.771,14.334
		c-1.868,4.968-6.141,8.592-10.64,11.143c-5.03,2.85-10.609,4.63-15.934,6.831c-4.944,2.042-9.81,4.253-14.62,6.59
		c6.027-9.617,11.477-19.684,17.97-28.992c3.363-4.821,7.914-9.569,13.935-10.716c4.215-0.804,7.794,0.592,10.366,3.37
		c2.74,4.129,3.843,9.506,2.811,14.155C350.77,55.646,342.895,60.636,335.686,63.896z"/>
	<path fill="#231F20" d="M251.947,95.529c-0.31-2.672-0.104-4.285-4.346-8.006c-1.165-0.873-2.561-1.458-4.185-1.619
		c-7.611-0.753-14.471,6.422-12.447,13.986c1.911,7.142,11.796,10.944,17.642,5.813C251.471,103.193,252.371,99.178,251.947,95.529z
		 M244.146,87.676c1.723,0.365,3.03,1.208,4.004,2.333c-1.926-1.896-4.677-2.87-8.201-2.169c-0.641,0.128-1.258,0.312-1.848,0.542
		C239.978,87.544,242.095,87.241,244.146,87.676z M240.179,89.2c0.47-0.095,0.918-0.144,1.354-0.172
		c-1.442,0.113-2.833,0.523-4.107,1.175C238.262,89.745,239.186,89.401,240.179,89.2z M232.749,97.472
		c0.083-0.243,0.174-0.483,0.273-0.717c0.011,0.955,0.141,1.917,0.367,2.828c0.074,0.298,0.17,0.621,0.282,0.956
		c-0.524-0.87-0.859-1.808-0.922-2.782C232.748,97.661,232.747,97.566,232.749,97.472z M249.154,99.76
		c-1.082,6.913-7.903,6.813-12.406,3.867c-0.974-1.315-1.666-3.012-1.946-4.012c-0.501-1.78-0.671-3.966,0.039-5.733
		c1.701-1.923,4.087-3.229,6.751-3.481C246.739,89.913,249.893,95.037,249.154,99.76z"/>
	<path fill="#231F20" d="M226.962,61.055c0-0.029,0.002-0.058,0.002-0.087c-0.006-0.216-0.258-0.438-0.464-0.445
		c-0.245-0.009-0.489-0.016-0.734-0.024c-0.181-0.006-22.497-3.106-24.232-2.852c-0.514,0.076-0.84,0.159-1.075,0.293
		c-0.334-0.096-0.748,0.022-0.883,0.448c-1.352,4.291-2.008,8.623-2.007,13.118c0,0.383,0.341,0.639,0.696,0.651
		c2.076,0.081,4.147,0.199,6.215,0.355c6.688,0.776,16.426,2.458,19.442,2.527c0.373,0.008,0.569-0.289,0.57-0.573
		c0.066-0.074,0.121-0.16,0.145-0.276C225.448,70.195,227.091,61.227,226.962,61.055z M208.057,59.638
		c2.305,0.279,4.614,0.586,6.924,0.888c-0.097,0.447-0.186,0.897-0.271,1.348c-4.34-0.942-8.938-1.203-13.368-1.687
		C202.774,58.52,205.396,59.315,208.057,59.638z M205.814,71.252c-0.897-0.074-1.869-0.064-2.827-0.099
		c-0.81-0.12-1.621-0.218-2.431-0.277c-0.743-0.147-1.078-0.146-1.26-0.346c0.053-0.482,0.108-0.964,0.167-1.444
		c4.625,0.674,9.256,1.784,13.919,2.073c-0.04,0.299-0.08,0.597-0.119,0.895C210.788,71.734,208.305,71.457,205.814,71.252z
		 M199.826,66.319c0.061-0.426,0.115-0.852,0.178-1.277c4.521,1.053,9.316,1.787,13.963,1.646c-0.081,0.602-0.156,1.204-0.232,1.807
		C209.066,67.957,204.493,66.832,199.826,66.319z M213.684,68.888c-0.083,0.657-0.174,1.308-0.26,1.962
		c-4.527-1.173-9.276-1.565-13.885-2.366c0.066-0.523,0.134-1.047,0.205-1.57C204.408,67.38,208.982,68.908,213.684,68.888z
		 M200.098,64.43c0.099-0.65,0.186-1.302,0.296-1.952c0.008-0.047,0.02-0.087,0.028-0.134c4.609,0.742,9.233,1.503,13.864,2.079
		c-0.094,0.619-0.18,1.239-0.264,1.858C209.324,65.822,204.728,65.388,200.098,64.43z M200.535,61.85
		c0.114-0.423,0.255-0.784,0.422-1.092c4.516,0.55,9.131,1.423,13.669,1.573c-0.101,0.554-0.183,1.112-0.271,1.669
		C209.774,63.169,205.144,62.517,200.535,61.85z M224.511,67.486c-0.292,1.644-0.684,3.396-0.695,5.101
		c-0.104,0.458-0.189,0.836-0.25,1.107c-0.001-0.001-0.001-0.001-0.002-0.001c-3.067-0.584-6.146-1.086-9.237-1.506
		c0.54-3.829,1.249-7.7,1.488-11.552c3.322,0.429,6.648,0.835,9.977,1.098c0.004,0.045,0.004,0.1,0.005,0.153
		C225.227,63.712,224.845,65.61,224.511,67.486z"/>
	<path fill="#231F20" d="M223.986,62.938c-0.061-0.193-0.302-0.311-0.456-0.218c-1.897-0.662-4.133-0.561-6.103-0.576
		c-0.257-0.001-0.425,0.134-0.481,0.383c-0.598,2.672-1.098,5.374-1.208,8.116c-0.001,0.004,0.001,0.007,0.001,0.01
		c-0.322,0.208-0.292,0.829,0.202,0.91c2.175,0.359,4.355,0.706,6.542,0.986c0.237,0.03,0.468-0.155,0.493-0.392
		c0.304-2.951,1.011-5.999,1.024-8.963C224.037,63.112,224.037,63.018,223.986,62.938z M222.155,71.591
		c-1.564-0.287-3.135-0.541-4.708-0.785c0.524-1.91,1.105-4.184,0.944-6.164c-0.067-0.816-0.252-0.698,0.598-0.523
		c0.394,0.082,0.791,0.131,1.191,0.154c1.017,0.058,1.979-0.096,2.951-0.381c0.027-0.007,0.041-0.024,0.065-0.035
		C222.656,66.376,222.513,69.042,222.155,71.591z"/>
	<path fill="#231F20" d="M226.083,101.88c2.783,10.399,17.179,15.939,25.694,8.465c4.165-3.655,5.474-9.501,4.857-14.816
		c-0.451-3.891-0.15-6.241-6.329-11.659c-1.697-1.271-3.73-2.125-6.096-2.358C233.126,80.415,223.135,90.863,226.083,101.88z
		 M245.274,84.091c9.151,1.941,10.496,12.933,8.121,20.651c-1.56,3.259-4.294,5.802-8.157,6.49
		c-8.386,1.492-16.69-3.772-17.448-12.501C226.995,89.556,236.543,82.242,245.274,84.091z"/>
	<path fill="#231F20" d="M265.327,113.522c0.898,3.361,5.552,5.152,8.304,2.736c1.346-1.182,1.769-3.071,1.569-4.79
		c-0.146-1.257-0.049-2.017-2.046-3.767c-0.549-0.412-1.205-0.688-1.969-0.763C267.602,106.584,264.373,109.96,265.327,113.522z
		 M271.528,107.772c2.958,0.628,3.392,4.18,2.625,6.676c-0.504,1.053-1.389,1.874-2.637,2.096c-2.71,0.483-5.394-1.219-5.639-4.039
		C265.621,109.539,268.707,107.175,271.528,107.772z"/>
	<path fill="#231F20" d="M268.139,112.171c-0.055,0.646,0.09,1.311,0.491,1.862c0.996,1.373,3.008,1.111,3.896-0.246
		c0.5-0.766,0.601-1.991,0.242-2.952c0.013-0.565-0.79-1.196-1.228-1.41c-1.132-0.554-2.993,0.316-3.161,1.601
		c-0.012,0.096-0.022,0.203-0.03,0.313c-0.091,0.232-0.164,0.471-0.195,0.72C268.148,112.096,268.144,112.133,268.139,112.171z
		 M269.466,112.995c-0.032-0.656-0.169-1.352,0.199-1.874c0.069-0.073,0.141-0.141,0.211-0.197c0.09-0.069,0.182-0.11,0.272-0.153
		c0.346-0.127,0.745-0.122,1.058,0.083c0.277,0.181,0.395,0.47,0.503,0.763c0.056,0.323,0.002,0.671-0.201,0.965
		C271.093,113.178,270.014,113.465,269.466,112.995z"/>
	<path fill="#231F20" d="M243.101,77.029c0.6,0.069,1.115,0.663,1.017,1.279c-0.099,0.619-0.635,1.09-1.278,1.016
		c-0.6-0.068-1.115-0.662-1.017-1.278C241.92,77.427,242.457,76.956,243.101,77.029z"/>
	<path fill="#231F20" d="M234.646,77.656c1.851,0.211,1.527,3.088-0.327,2.877C232.467,80.322,232.792,77.445,234.646,77.656z"/>
	<path fill="#231F20" d="M227.431,82.286c0.905,0.103,1.68,0.997,1.532,1.925c-0.148,0.932-0.957,1.642-1.925,1.532
		c-0.905-0.104-1.681-0.997-1.532-1.927C225.653,82.885,226.461,82.175,227.431,82.286z"/>
	<path fill="#231F20" d="M223.598,89.475c1.271,0.146,1.048,2.121-0.225,1.977C222.101,91.307,222.324,89.331,223.598,89.475z"/>
	<path fill="#231F20" d="M222.287,96.85c1.525,0.174,1.258,2.546-0.27,2.371C220.491,99.047,220.759,96.676,222.287,96.85z"/>
	<path fill="#231F20" d="M222.461,105.544c0.188-0.469,0.747-0.708,1.218-0.52c0.506,0.203,0.647,0.71,0.525,1.193
		c-0.117,0.463-0.685,0.681-1.102,0.575C222.562,106.657,222.25,106.069,222.461,105.544z"/>
	<path fill="#231F20" d="M226.621,110.072c1.75,0.198,1.443,2.919-0.309,2.72C224.562,112.592,224.869,109.872,226.621,110.072z"/>
	<path fill="#231F20" d="M232.949,115.713c0.602,0.069,1.118,0.664,1.02,1.282c-0.099,0.621-0.637,1.093-1.282,1.02
		c-0.602-0.068-1.119-0.663-1.02-1.281C231.767,116.113,232.304,115.641,232.949,115.713z"/>
	<path fill="#231F20" d="M241.584,117.639c1.122,0.128,0.925,1.872-0.199,1.743C240.264,119.255,240.46,117.512,241.584,117.639z"/>
	<path fill="#231F20" d="M249.298,115.245c1.212,0.138,0.999,2.021-0.214,1.883C247.873,116.99,248.085,115.106,249.298,115.245z"/>
	<path fill="#231F20" d="M254.933,111.258c1.226,0.14,1.011,2.046-0.217,1.907C253.489,113.025,253.705,111.119,254.933,111.258z"/>
	<path fill="#231F20" d="M258.335,105.371c1.182,0.135,0.975,1.972-0.209,1.836C256.944,107.073,257.151,105.236,258.335,105.371z"
		/>
	<path fill="#231F20" d="M260.097,98.176c1.361,0.156,1.122,2.271-0.241,2.115C258.494,100.137,258.732,98.021,260.097,98.176z"/>
	<path fill="#231F20" d="M259.026,89.374c1.201,0.137,0.99,2.004-0.212,1.867C257.613,91.104,257.824,89.237,259.026,89.374z"/>
	<path fill="#231F20" d="M253.134,81.571c1.465,0.167,1.208,2.445-0.26,2.278C251.408,83.682,251.665,81.403,253.134,81.571z"/>
</g>
</svg>
