<?xml version="1.0" encoding="utf-8"?>
<!-- Generator: Adobe Illustrator 16.0.0, SVG Export Plug-In . SVG Version: 6.00 Build 0)  -->
<!DOCTYPE svg PUBLIC "-//W3C//DTD SVG 1.1//EN" "http://www.w3.org/Graphics/SVG/1.1/DTD/svg11.dtd">
<svg version="1.1" xmlns="http://www.w3.org/2000/svg" xmlns:xlink="http://www.w3.org/1999/xlink" x="0px" y="0px" width="300px"
	 height="300px" viewBox="0 0 300 300" enable-background="new 0 0 300 300" xml:space="preserve">
<g id="Layer_3">
	<g>
		<defs>
			<circle id="SVGID_1_" cx="150" cy="150" r="146.334"/>
		</defs>
		<clipPath id="SVGID_2_">
			<use xlink:href="#SVGID_1_"  overflow="visible"/>
		</clipPath>
		<g id="Business_Travel_2_" clip-path="url(#SVGID_2_)">
			<g id="Background_26_">
				<rect id="Background_1_26_" x="0.09" y="0.09" fill="#F4CD3E" width="299.82" height="299.82"/>
				<circle id="Background_2_26_" fill="#F8E07D" cx="150" cy="149.999" r="99.69"/>
			</g>
			<g id="Business_Travel_3_">
				<g>
					<g>
						<polygon fill-rule="evenodd" clip-rule="evenodd" fill="#E9493A" points="251.517,192.02 234.025,199.162 216.551,206.304 
							227.265,181.522 237.958,156.759 244.737,174.38 						"/>
						<polygon fill-rule="evenodd" clip-rule="evenodd" fill="#EE7A70" points="249.847,191.294 235.496,193.509 221.13,195.706 
							227.265,181.522 233.38,167.354 241.612,179.324 						"/>
						<polygon fill-rule="evenodd" clip-rule="evenodd" fill="#E9493A" points="224.422,216.554 213.923,216.637 203.424,216.737 
							214.055,206.153 217.063,204.319 224.603,201.725 224.554,206.072 						"/>
						<polygon fill-rule="evenodd" clip-rule="evenodd" fill="#EE7A70" points="223.709,215.843 215.842,214.025 207.971,212.206 
							214.055,206.153 217.063,204.319 220.832,203.016 221.924,207.976 						"/>
					</g>
					<g>
						<path fill-rule="evenodd" clip-rule="evenodd" fill="#E9493A" d="M50.947,96.232c0.694-5.638,3.538-10.829,8.679-15.557
							l2.91-1.373l1.983,0.513l0.563-1.323l3.026-0.793l0.215,1.818l1.241,1.488l2-0.811l0.099,0.083
							c5.571-6.382,12.07-12.052,19.806-16.764l13.49,12.102l-1.554,1.735l-4.051-3.637c-1.239-1.107-3.141-0.992-4.249,0.232l0,0
							c-1.09,1.222-0.991,3.124,0.231,4.231l4.067,3.637l-2.331,2.596l-4.876-4.364c-1.224-1.109-3.142-1.009-4.232,0.215l0,0
							c-1.108,1.24-1.008,3.14,0.213,4.249l4.878,4.364l-2.198,2.464l-4.382-3.918c-1.768-1.604-4.53-1.455-6.133,0.33l0,0
							c-1.586,1.77-1.439,4.53,0.331,6.134l4.381,3.917l-2.25,2.514l-4.876-4.382c-1.223-1.09-3.141-0.991-4.232,0.232l0,0
							c-1.108,1.223-1.009,3.141,0.231,4.233l4.86,4.38l-2.281,2.547l-4.05-3.638c-1.24-1.107-3.142-0.992-4.233,0.232l0,0
							c-1.106,1.222-1.008,3.124,0.215,4.23l4.067,3.638l-1.885,2.1l-13.49-12.101L50.947,96.232z M61.411,93.785l-2.627-2.364
							c-1.224-1.091-3.124-0.992-4.232,0.231l0,0c-1.108,1.224-0.993,3.142,0.231,4.232l3.307,2.976
							C59.097,97.224,60.206,95.521,61.411,93.785L61.411,93.785z M67.049,86.179l-2.793-2.512
							c-1.224-1.089-3.126-0.992-4.232,0.232l0,0c-1.108,1.24-0.992,3.142,0.231,4.232l3.158,2.844
							C64.553,89.403,65.777,87.8,67.049,86.179L67.049,86.179z M67.794,99.505l-2.001-1.784c-1.224-1.108-3.124-0.993-4.232,0.231
							l0,0c-1.091,1.223-0.993,3.124,0.231,4.232l2.662,2.38C65.462,102.927,66.586,101.241,67.794,99.505L67.794,99.505z
							 M90.359,73.715l-1.668-1.504c-1.224-1.107-1.324-3.009-0.233-4.233l0,0c1.108-1.222,3.01-1.339,4.234-0.23l2.181,1.951
							C93.402,70.954,91.898,72.292,90.359,73.715L90.359,73.715z M83.597,80.394l-2.065-1.852
							c-1.224-1.108-1.324-3.009-0.231-4.248l0,0c1.106-1.224,3.008-1.322,4.249-0.215l2.281,2.05
							C86.425,77.484,85.02,78.906,83.597,80.394L83.597,80.394z M73.48,91.951l-2.199-1.985c-1.24-1.091-3.14-0.991-4.249,0.231
							l0,0c-1.09,1.224-0.992,3.142,0.232,4.234l2.545,2.281C70.968,95.157,72.191,93.554,73.48,91.951L73.48,91.951z"/>
						<path fill-rule="evenodd" clip-rule="evenodd" fill="#EE7A70" d="M56.551,103.309c10.118-15.542,22.254-28.916,36.207-40.355
							c0.296-0.332,0.264-0.829-0.05-1.125l0,0c-0.331-0.296-0.844-0.265-1.124,0.065C78.374,71.93,66.19,85.039,55.361,102.25
							c-0.298,0.331-0.263,0.827,0.066,1.124l0,0C55.741,103.67,56.254,103.639,56.551,103.309L56.551,103.309z"/>
						<path fill-rule="evenodd" clip-rule="evenodd" fill="#EE7A70" d="M62.701,108.831C72.82,93.289,84.953,79.897,98.908,68.475
							c0.297-0.331,0.263-0.827-0.05-1.125l0,0c-0.331-0.297-0.843-0.265-1.124,0.066c-13.21,10.017-25.394,23.146-36.223,40.355
							c-0.297,0.331-0.264,0.827,0.065,1.124l0,0C61.892,109.177,62.404,109.161,62.701,108.831L62.701,108.831z"/>
					</g>
					<g>
						<path fill-rule="evenodd" clip-rule="evenodd" fill="#E9493A" d="M196.944,77.121l6.564,6.712
							c0.278-0.827,0.725-1.57,1.352-2.165c3.042-2.994,9.16-1.72,13.839,2.81c4.415,4.777,5.571,10.91,2.529,13.887
							c-0.611,0.612-1.371,1.043-2.196,1.307l6.579,6.711c0.908-23.127,11.207-39.082,28.599-53.68
							c0.415-0.892-0.61-0.91-0.198-1.785c0.413-0.942,2.267-2.745,2.695-3.688c-0.942,0.415-2.778,2.233-3.735,2.63
							c-0.876,0.396-0.876-0.628-1.769-0.249C236.24,66.706,220.074,76.675,196.944,77.121L196.944,77.121z M222.865,80.394
							l-4.794-4.894l9.341-3.24l1.836,1.868l1.852,1.884l-3.439,9.276L222.865,80.394z"/>
						<path fill-rule="evenodd" clip-rule="evenodd" fill="#EE7A70" d="M229.646,66.803l6.942,7.077
							c0.249,0.265,0.249,0.678,0,0.926l0,0c-0.265,0.248-0.679,0.248-0.926-0.016l-6.943-7.077
							c-0.246-0.263-0.23-0.677,0.017-0.926l0,0C228.983,66.539,229.396,66.539,229.646,66.803L229.646,66.803z"/>
						<path fill-rule="evenodd" clip-rule="evenodd" fill="#EE7A70" d="M214.797,72.129l16.169,16.498
							c0.612,0.628,0.596,1.637-0.032,2.231l0,0c-0.611,0.611-1.618,0.611-2.23-0.016l-16.17-16.499
							c-0.613-0.629-0.595-1.638,0.033-2.232l0,0C213.178,71.499,214.187,71.499,214.797,72.129L214.797,72.129z"/>
					</g>
				</g>
				<g>
					<path fill-rule="evenodd" clip-rule="evenodd" fill="#57C8DE" d="M150.403,238.724c48.542,0,88.135-39.595,88.135-88.134
						c0-48.538-39.594-88.117-88.135-88.117c-48.536,0-88.115,39.58-88.115,88.117C62.288,199.129,101.867,238.724,150.403,238.724
						L150.403,238.724z"/>
					<path fill-rule="evenodd" clip-rule="evenodd" fill="#FFFFFF" d="M221.872,202.154c-3.917,5.425-8.43,10.382-13.439,14.764
						h-23.227c-0.993,1.008-2.381,1.637-3.901,1.637c-0.597,0-1.173-0.101-1.722-0.282c0,0.084,0,0.166,0,0.249
						c0,5.191-4.198,9.391-9.389,9.391c-5.192,0-9.407-4.199-9.407-9.391c0-1.686,0.448-3.258,1.222-4.628h-4.627
						c-3.687,0-6.712-3.026-6.712-6.714l0,0c0-1.918,0.827-3.652,2.116-4.875c1.09-2.879,3.868-4.93,7.125-4.93
						c2.515,0,4.745,1.225,6.133,3.094h5.009c1.224-2.563,3.836-4.348,6.88-4.348c3.025,0,5.652,1.785,6.876,4.348h5.407
						c2.032,0,3.866,0.909,5.091,2.362L221.872,202.154z"/>
					<path fill-rule="evenodd" clip-rule="evenodd" fill="#7FC783" d="M237.051,166.726c-1.487,8.069-4.084,15.756-7.621,22.914
						h-70.132c-6.313,0-11.456-5.156-11.456-11.457l0,0c0-6.299,5.143-11.457,11.456-11.457H237.051z M230.109,112.963
						c5.402,11.407,8.429,24.168,8.429,37.626c0,1.44-0.033,2.86-0.116,4.283c-2.497,1.008-5.224,1.572-8.066,1.572h-58.903
						c-11.955,0-21.742-9.789-21.742-21.741l0,0c0-11.954,9.787-21.74,21.742-21.74H230.109z M68.141,182.251
						c-3.638-9.456-5.704-19.724-5.837-30.438h28.452c3.473,0,6.316,2.844,6.316,6.314l0,0c0,0.911-0.199,1.786-0.562,2.58h16.218
						c5.934,0,10.778,4.845,10.778,10.778l0,0c0,5.92-4.844,10.765-10.778,10.765H68.141z M74.423,105.954
						c3.389-5.754,7.406-11.094,11.954-15.905h33.875c4.38,0,7.951,3.572,7.951,7.952l0,0c0,4.365-3.57,7.953-7.951,7.953H74.423z"
						/>
					<path fill-rule="evenodd" clip-rule="evenodd" fill="#FFFFFF" d="M235.15,126.304c2.198,7.706,3.388,15.854,3.388,24.286
						c0,2.514-0.116,4.994-0.313,7.44c-1.371,0.927-3.024,1.456-4.796,1.456c-3.421,0-6.38-2.002-7.768-4.895h-6.085
						c-4.165,0-7.571-3.405-7.571-7.555v-0.016c0-4.149,3.406-7.557,7.571-7.557h3.901c0.462-2.976,3.042-5.256,6.149-5.256
						c0.661,0,1.323,0.116,1.935,0.312c0-0.098,0-0.179,0-0.279C231.562,131.083,232.952,128.239,235.15,126.304L235.15,126.304z"/>
					<path fill-rule="evenodd" clip-rule="evenodd" fill="#FFFFFF" d="M82.969,104.912c1.571,0,3.076,0.346,4.414,0.974
						c1.158-0.544,2.464-0.892,3.869-0.974c-0.231-0.728-0.347-1.503-0.347-2.297c0-4.581,4.1-8.284,9.159-8.284
						c5.06,0,9.159,3.703,9.159,8.284c0,1.7-0.562,3.271-1.537,4.595c2.927,0.827,5.042,3.124,5.042,5.819
						c0,1.175-0.397,2.266-1.091,3.208c4.116,0.778,6.762,2,6.762,3.39c0,2.379-7.936,4.313-17.723,4.313
						c-4.05,0-7.787-0.33-10.779-0.891c-1.834,1.651-4.264,2.661-6.928,2.661c-5.753,0-10.398-4.663-10.398-10.4
						C72.571,109.557,77.216,104.912,82.969,104.912L82.969,104.912z"/>
					<path fill-rule="evenodd" clip-rule="evenodd" fill="#FFFFFF" d="M155.183,174.646c3.685,0,6.811-2.298,8.035-5.539
						c1.472-1.39,2.397-3.355,2.397-5.504l0,0c0-4.167-3.406-7.573-7.572-7.573h-5.208c0.879-1.538,1.372-3.322,1.372-5.225
						c0-5.852-4.743-10.597-10.597-10.597c-5.852,0-10.596,4.745-10.596,10.597c0,0.1,0,0.181,0,0.281
						c-0.612-0.199-1.258-0.315-1.934-0.315c-3.11,0-5.688,2.283-6.134,5.259h-3.919c-4.166,0-7.572,3.406-7.572,7.573l0,0
						c0,4.148,3.406,7.555,7.572,7.555h6.1c1.373,2.893,4.332,4.893,7.754,4.893c3.421,0,6.381-2,7.754-4.893h5.653
						C149.844,173.272,152.357,174.646,155.183,174.646L155.183,174.646z"/>
				</g>
				<path fill="#E64D3C" d="M130.187,191.178c-2.017,0-2.017-3.078,0-3.078h3.074c0.86,0,1.554,0.682,1.554,1.54
					c0,0.843-0.694,1.538-1.554,1.538H130.187z M139.427,191.178c-0.859,0-1.537-0.695-1.537-1.538c0-0.858,0.678-1.54,1.537-1.54
					h3.076c0.842,0,1.537,0.682,1.537,1.54c0,0.843-0.695,1.538-1.537,1.538H139.427z M148.653,191.178
					c-0.843,0-1.537-0.695-1.537-1.538c0-0.858,0.693-1.54,1.537-1.54h3.074c0.861,0,1.537,0.682,1.537,1.54
					c0,0.843-0.676,1.538-1.537,1.538H148.653z M157.877,191.178c-0.843,0-1.538-0.695-1.538-1.538c0-0.858,0.695-1.54,1.538-1.54
					h3.092c0.845,0,1.538,0.682,1.538,1.54c0,0.843-0.693,1.538-1.538,1.538H157.877z M167.12,191.178
					c-0.86,0-1.54-0.695-1.54-1.538c0-0.858,0.68-1.54,1.54-1.54h3.074c0.843,0,1.537,0.682,1.537,1.54
					c0,0.843-0.694,1.538-1.537,1.538H167.12z M176.344,191.178c-0.843,0-1.537-0.695-1.537-1.538c0-0.858,0.694-1.54,1.537-1.54
					h3.075c0.859,0,1.539,0.682,1.539,1.54c0,0.843-0.68,1.538-1.539,1.538H176.344z M185.587,191.178
					c-0.861,0-1.538-0.695-1.538-1.538c0-0.858,0.677-1.54,1.538-1.54h3.073c0.843,0,1.539,0.682,1.539,1.54
					c0,0.843-0.696,1.538-1.539,1.538H185.587z M194.812,191.178c-0.842,0-1.539-0.695-1.539-1.538c0-0.858,0.697-1.54,1.539-1.54
					h3.074c0.858,0,1.538,0.682,1.538,1.54c0,0.843-0.68,1.538-1.538,1.538H194.812z M204.038,191.178
					c-0.848,0-1.538-0.695-1.538-1.538c0-0.858,0.69-1.54,1.538-1.54h3.071c0.861,0,1.556,0.682,1.556,1.54
					c0,0.843-0.694,1.538-1.556,1.538H204.038z M213.278,191.178c-0.859,0-1.539-0.695-1.539-1.538c0-0.858,0.68-1.54,1.539-1.54
					h3.075c0.842,0,1.537,0.682,1.537,1.54c0,0.843-0.695,1.538-1.537,1.538H213.278z M219.545,185.143
					c0,0.843-0.68,1.537-1.54,1.537c-0.843,0-1.535-0.694-1.535-1.537v-3.089c0-0.848,0.692-1.541,1.535-1.541
					c0.86,0,1.54,0.693,1.54,1.541V185.143z M219.545,175.902c0,0.857-0.68,1.537-1.54,1.537c-0.843,0-1.535-0.68-1.535-1.537
					v-3.076c0-0.844,0.692-1.537,1.535-1.537c0.86,0,1.54,0.693,1.54,1.537V175.902z M219.545,166.676
					c0,0.843-0.68,1.538-1.54,1.538c-0.843,0-1.535-0.695-1.535-1.538v-3.073c0-0.862,0.692-1.54,1.535-1.54
					c0.86,0,1.54,0.678,1.54,1.54V166.676z M219.545,157.434c0,0.86-0.68,1.556-1.54,1.556c-0.843,0-1.535-0.695-1.535-1.556v-3.074
					c0-0.843,0.692-1.537,1.535-1.537c0.86,0,1.54,0.694,1.54,1.537V157.434z M217.112,147.566c0.859,0,1.539,0.677,1.539,1.536
					c0,0.842-0.68,1.538-1.539,1.538h-3.075c-0.841,0-1.538-0.696-1.538-1.538c0-0.859,0.697-1.536,1.538-1.536H217.112z
					 M207.888,147.566c0.845,0,1.537,0.677,1.537,1.536c0,0.842-0.692,1.538-1.537,1.538h-3.074c-0.86,0-1.538-0.696-1.538-1.538
					c0-0.859,0.678-1.536,1.538-1.536H207.888z M198.663,147.566c0.842,0,1.537,0.677,1.537,1.536c0,0.842-0.695,1.538-1.537,1.538
					h-3.075c-0.859,0-1.556-0.696-1.556-1.538c0-0.859,0.696-1.536,1.556-1.536H198.663z M189.421,147.566
					c0.86,0,1.537,0.677,1.537,1.536c0,0.842-0.677,1.538-1.537,1.538h-3.074c-0.843,0-1.538-0.696-1.538-1.538
					c0-0.859,0.695-1.536,1.538-1.536H189.421z M180.195,147.566c0.844,0,1.538,0.677,1.538,1.536c0,0.842-0.694,1.538-1.538,1.538
					h-3.074c-0.858,0-1.537-0.696-1.537-1.538c0-0.859,0.679-1.536,1.537-1.536H180.195z M170.972,147.566
					c0.843,0,1.538,0.677,1.538,1.536c0,0.842-0.695,1.538-1.538,1.538h-3.092c-0.843,0-1.537-0.696-1.537-1.538
					c0-0.859,0.694-1.536,1.537-1.536H170.972z M161.729,147.566c0.861,0,1.54,0.677,1.54,1.536c0,0.842-0.679,1.538-1.54,1.538
					h-3.073c-0.843,0-1.539-0.696-1.539-1.538c0-0.859,0.696-1.536,1.539-1.536H161.729z M152.506,147.566
					c0.842,0,1.537,0.677,1.537,1.536c0,0.842-0.695,1.538-1.537,1.538h-3.077c-0.859,0-1.537-0.696-1.537-1.538
					c0-0.859,0.678-1.536,1.537-1.536H152.506z M143.263,147.566c0.86,0,1.538,0.677,1.538,1.536c0,0.842-0.678,1.538-1.538,1.538
					h-3.074c-0.844,0-1.538-0.696-1.538-1.538c0-0.859,0.693-1.536,1.538-1.536H143.263z M134.038,147.566
					c0.843,0,1.538,0.677,1.538,1.536c0,0.842-0.695,1.538-1.538,1.538h-3.076c-0.859,0-1.536-0.696-1.536-1.538
					c0-0.859,0.677-1.536,1.536-1.536H134.038z M124.814,147.566c0.842,0,1.538,0.677,1.538,1.536c0,0.842-0.696,1.538-1.538,1.538
					h-3.092c-0.843,0-1.538-0.696-1.538-1.538c0-0.859,0.694-1.536,1.538-1.536H124.814z M115.572,147.566
					c0.859,0,1.537,0.677,1.537,1.536c0,0.842-0.677,1.538-1.537,1.538h-3.076c-0.843,0-1.538-0.696-1.538-1.538
					c0-0.859,0.695-1.536,1.538-1.536H115.572z M106.346,147.566c0.843,0,1.539,0.677,1.539,1.536c0,0.842-0.696,1.538-1.539,1.538
					h-3.074c-0.86,0-1.538-0.696-1.538-1.538c0-0.859,0.678-1.536,1.538-1.536H106.346z M97.105,147.566
					c0.86,0,1.553,0.677,1.553,1.536c0,0.842-0.693,1.538-1.553,1.538H94.03c-0.843,0-1.538-0.696-1.538-1.538
					c0-0.859,0.694-1.536,1.538-1.536H97.105z M88.922,147.979c0.313,0.28,0.497,0.677,0.497,1.123c0,0.842-0.696,1.538-1.539,1.538
					h-0.497c-0.842,0-1.537-0.696-1.537-1.538v-2.595c0-0.842,0.695-1.536,1.537-1.536c0.861,0,1.539,0.693,1.539,1.536V147.979z
					 M88.922,140.357c0,0.859-0.678,1.536-1.539,1.536c-0.842,0-1.537-0.677-1.537-1.536v-3.077c0-0.841,0.695-1.537,1.537-1.537
					c0.861,0,1.539,0.696,1.539,1.537V140.357z M88.922,131.132c0,0.842-0.678,1.537-1.539,1.537c-0.842,0-1.537-0.695-1.537-1.537
					v-3.077c0-0.859,0.695-1.537,1.537-1.537c0.861,0,1.539,0.678,1.539,1.537V131.132z M88.922,121.889
					c0,0.86-0.678,1.539-1.539,1.539c-0.842,0-1.537-0.679-1.537-1.539v-3.075c0-0.844,0.695-1.537,1.537-1.537
					c0.861,0,1.539,0.693,1.539,1.537V121.889z M88.922,112.666c0,0.843-0.678,1.537-1.539,1.537c-0.842,0-1.537-0.694-1.537-1.537
					v-3.076c0-0.86,0.695-1.537,1.537-1.537c0.861,0,1.539,0.677,1.539,1.537V112.666z M87.483,105.061
					c-0.843,0-1.537-0.678-1.537-1.539c0-0.842,0.694-1.537,1.537-1.537h3.076c0.859,0,1.537,0.695,1.537,1.537
					c0,0.861-0.677,1.539-1.537,1.539H87.483z M96.725,105.061c-0.859,0-1.537-0.678-1.537-1.539c0-0.842,0.678-1.537,1.537-1.537
					h3.076c0.842,0,1.537,0.695,1.537,1.537c0,0.861-0.694,1.539-1.537,1.539H96.725z M105.949,105.061
					c-0.843,0-1.538-0.678-1.538-1.539c0-0.842,0.695-1.537,1.538-1.537h3.076c0.843,0,1.537,0.695,1.537,1.537
					c0,0.861-0.694,1.539-1.537,1.539H105.949z M115.175,105.061c-0.844,0-1.539-0.678-1.539-1.539c0-0.842,0.695-1.537,1.539-1.537
					h3.074c0.861,0,1.555,0.695,1.555,1.537c0,0.861-0.694,1.539-1.555,1.539H115.175z M124.416,105.061
					c-0.86,0-1.537-0.678-1.537-1.539c0-0.842,0.677-1.537,1.537-1.537h3.076c2.017,0,2.017,3.076,0,3.076H124.416z"/>
				<g>
					<polygon fill-rule="evenodd" clip-rule="evenodd" fill="#FFFFFF" points="101.503,184.877 69.297,168.94 69.297,242.939 
						101.503,258.877 					"/>
					<polygon fill-rule="evenodd" clip-rule="evenodd" fill="#E6E6E5" points="46.914,180.117 69.297,168.94 69.297,242.939 
						46.914,254.116 					"/>
					<polygon fill-rule="evenodd" clip-rule="evenodd" fill="#E6E6E5" points="101.503,184.877 126.301,180.382 126.301,254.381 
						101.503,258.877 					"/>
					<polygon fill-rule="evenodd" clip-rule="evenodd" fill="#3C97D3" points="69.297,218.406 101.503,233.004 101.503,253.934 
						69.297,238.839 					"/>
					<polygon fill-rule="evenodd" clip-rule="evenodd" fill="#2D7CB2" points="101.503,233.004 122.119,224.704 122.119,250.427 
						101.503,253.934 					"/>
					<polygon fill-rule="evenodd" clip-rule="evenodd" fill="#2D7CB2" points="51.509,230.955 69.297,218.406 69.297,238.839 
						51.509,246.776 					"/>
					<path fill-rule="evenodd" clip-rule="evenodd" fill="#4FBA6F" d="M69.297,211.827l18.879,5.899l13.327-8.1v-13.605
						L69.297,180.2V211.827z M94.427,219.679l7.077,2.199v-6.284L94.427,219.679z"/>
					<path fill-rule="evenodd" clip-rule="evenodd" fill="#24A65C" d="M101.503,209.627l5.389-8.944l15.028,0.349v-12.317
						l-20.417,7.308V209.627z M101.503,221.878v-6.284l6.728-10.794l13.688-0.992v12.433L101.503,221.878z"/>
					<polygon fill-rule="evenodd" clip-rule="evenodd" fill="#24A65C" points="51.047,188.714 51.047,225.911 69.297,211.827 
						69.297,180.2 					"/>
					<path fill-rule="evenodd" clip-rule="evenodd" fill="#E64D3C" d="M91.5,218.026l-13.771-28.452l0,0
						c-0.843-1.886-1.307-3.97-1.307-6.169c0-8.314,6.746-15.075,15.078-15.075c8.316,0,15.079,6.761,15.079,15.075
						c0,2.199-0.48,4.283-1.324,6.169l0,0L91.5,218.026z"/>
					<path fill-rule="evenodd" clip-rule="evenodd" fill="#FFFFFF" d="M91.5,189.755c3.588,0,6.514-2.926,6.514-6.528
						c0-3.588-2.926-6.516-6.514-6.516c-3.604,0-6.53,2.928-6.53,6.516C84.971,186.829,87.896,189.755,91.5,189.755L91.5,189.755z"
						/>
				</g>
				<g>
					<path fill-rule="evenodd" clip-rule="evenodd" fill="#2D7CB2" d="M196.579,83.089h7.324c1.025,0,1.852,0.826,1.852,1.868v4.364
						c0,1.024-0.826,1.869-1.852,1.869h-7.324c-1.024,0-1.867-0.844-1.867-1.869v-4.364
						C194.712,83.915,195.555,83.089,196.579,83.089L196.579,83.089z M185.537,67.168h7.307c1.041,0,1.868,0.827,1.868,1.868v4.365
						c0,1.024-0.827,1.868-1.868,1.868h-7.307c-1.025,0-1.869-0.843-1.869-1.868v-4.365
						C183.668,67.995,184.512,67.168,185.537,67.168L185.537,67.168z"/>
					<path fill-rule="evenodd" clip-rule="evenodd" fill="#2D7CB2" d="M196.579,123.974h7.324c1.025,0,1.852-0.843,1.852-1.868
						v-4.366c0-1.024-0.826-1.867-1.852-1.867h-7.324c-1.024,0-1.867,0.843-1.867,1.867v4.366
						C194.712,123.13,195.555,123.974,196.579,123.974L196.579,123.974z M185.537,139.893h7.307c1.041,0,1.868-0.842,1.868-1.867
						v-4.366c0-1.024-0.827-1.867-1.868-1.867h-7.307c-1.025,0-1.869,0.843-1.869,1.867v4.366
						C183.668,139.051,184.512,139.893,185.537,139.893L185.537,139.893z"/>
					<path fill-rule="evenodd" clip-rule="evenodd" fill="#FFFFFF" d="M130.749,126.635l6.447-0.86l10.103-14.301h34.386
						l0.843,6.398l-10.33,42.453l6.313-1.139l29.015-47.713h25.824c9.721,0,16.498-4.018,16.448-8
						c-0.051-3.951-6.826-7.887-16.448-7.887h-25.824L178.51,47.875l-6.313-1.157l10.33,42.455l-0.843,6.416h-34.386l-10.103-14.3
						l-6.447-0.861C138.717,108.151,138.717,98.893,130.749,126.635L130.749,126.635z"/>
					<path fill-rule="evenodd" clip-rule="evenodd" fill="#2D7CB2" d="M132.468,126.403l-1.719,0.232l5.108-17.805
						c0.578,0.826,0.809,1.9,0.528,2.942L132.468,126.403z M132.004,101.771h11.672c0.977,0,1.77,0.793,1.77,1.751l0,0
						c0,0.977-0.793,1.77-1.77,1.77h-11.672c-0.975,0-1.752-0.793-1.752-1.77l0,0C130.252,102.564,131.03,101.771,132.004,101.771
						L132.004,101.771z M132.468,80.659l-1.719-0.233l5.108,17.806c0.578-0.827,0.809-1.901,0.528-2.942L132.468,80.659z"/>
					<path fill-rule="evenodd" clip-rule="evenodd" fill="#2D7CB2" d="M218.998,108.813h1.04c0.447,0,0.812-0.363,0.812-0.81l0,0
						c0-0.446-0.364-0.809-0.812-0.809h-1.04c-0.446,0-0.811,0.363-0.811,0.809l0,0
						C218.188,108.449,218.552,108.813,218.998,108.813L218.998,108.813z M218.998,98.249h1.04c0.447,0,0.812,0.364,0.812,0.812l0,0
						c0,0.445-0.364,0.809-0.812,0.809h-1.04c-0.446,0-0.811-0.364-0.811-0.809l0,0C218.188,98.613,218.552,98.249,218.998,98.249
						L218.998,98.249z M223.561,98.249h1.042c0.446,0,0.81,0.364,0.81,0.812l0,0c0,0.445-0.363,0.809-0.81,0.809h-1.042
						c-0.446,0-0.81-0.364-0.81-0.809l0,0C222.751,98.613,223.114,98.249,223.561,98.249L223.561,98.249z M214.436,98.249h1.057
						c0.431,0,0.793,0.364,0.793,0.812l0,0c0,0.445-0.362,0.809-0.793,0.809h-1.057c-0.448,0-0.811-0.364-0.811-0.809l0,0
						C213.625,98.613,213.987,98.249,214.436,98.249L214.436,98.249z M209.871,98.249h1.059c0.445,0,0.793,0.364,0.793,0.812l0,0
						c0,0.445-0.348,0.809-0.793,0.809h-1.059c-0.446,0-0.809-0.364-0.809-0.809l0,0C209.063,98.613,209.425,98.249,209.871,98.249
						L209.871,98.249z M205.309,98.249h1.059c0.446,0,0.81,0.364,0.81,0.812l0,0c0,0.445-0.363,0.809-0.81,0.809h-1.059
						c-0.448,0-0.809-0.364-0.809-0.809l0,0C204.5,98.613,204.86,98.249,205.309,98.249L205.309,98.249z M200.744,98.249h1.061
						c0.446,0,0.81,0.364,0.81,0.812l0,0c0,0.445-0.363,0.809-0.81,0.809h-1.061c-0.446,0-0.809-0.364-0.809-0.809l0,0
						C199.936,98.613,200.298,98.249,200.744,98.249L200.744,98.249z M183.339,98.249h1.042c0.443,0,0.807,0.364,0.807,0.812l0,0
						c0,0.445-0.363,0.809-0.807,0.809h-1.042c-0.449,0-0.813-0.364-0.813-0.809l0,0C182.526,98.613,182.89,98.249,183.339,98.249
						L183.339,98.249z M187.901,98.249h1.04c0.445,0,0.811,0.364,0.811,0.812l0,0c0,0.445-0.365,0.809-0.811,0.809h-1.04
						c-0.447,0-0.813-0.364-0.813-0.809l0,0C187.089,98.613,187.454,98.249,187.901,98.249L187.901,98.249z M178.776,98.249h1.038
						c0.446,0,0.811,0.364,0.811,0.812l0,0c0,0.445-0.364,0.809-0.811,0.809h-1.038c-0.449,0-0.812-0.364-0.812-0.809l0,0
						C177.965,98.613,178.327,98.249,178.776,98.249L178.776,98.249z M174.212,98.249h1.042c0.446,0,0.81,0.364,0.81,0.812l0,0
						c0,0.445-0.363,0.809-0.81,0.809h-1.042c-0.447,0-0.81-0.364-0.81-0.809l0,0C173.402,98.613,173.765,98.249,174.212,98.249
						L174.212,98.249z M169.649,98.249h1.04c0.446,0,0.812,0.364,0.812,0.812l0,0c0,0.445-0.365,0.809-0.812,0.809h-1.04
						c-0.446,0-0.812-0.364-0.812-0.809l0,0C168.838,98.613,169.203,98.249,169.649,98.249L169.649,98.249z M165.085,98.249h1.042
						c0.446,0,0.812,0.364,0.812,0.812l0,0c0,0.445-0.365,0.809-0.812,0.809h-1.042c-0.444,0-0.81-0.364-0.81-0.809l0,0
						C164.275,98.613,164.641,98.249,165.085,98.249L165.085,98.249z M183.339,108.813h1.042c0.443,0,0.807-0.363,0.807-0.81l0,0
						c0-0.446-0.363-0.809-0.807-0.809h-1.042c-0.449,0-0.813,0.363-0.813,0.809l0,0
						C182.526,108.449,182.89,108.813,183.339,108.813L183.339,108.813z M187.901,108.813h1.04c0.445,0,0.811-0.363,0.811-0.81l0,0
						c0-0.446-0.365-0.809-0.811-0.809h-1.04c-0.447,0-0.813,0.363-0.813,0.809l0,0
						C187.089,108.449,187.454,108.813,187.901,108.813L187.901,108.813z M178.776,108.813h1.038c0.446,0,0.811-0.363,0.811-0.81
						l0,0c0-0.446-0.364-0.809-0.811-0.809h-1.038c-0.449,0-0.812,0.363-0.812,0.809l0,0
						C177.965,108.449,178.327,108.813,178.776,108.813L178.776,108.813z M174.212,108.813h1.042c0.446,0,0.81-0.363,0.81-0.81l0,0
						c0-0.446-0.363-0.809-0.81-0.809h-1.042c-0.447,0-0.81,0.363-0.81,0.809l0,0C173.402,108.449,173.765,108.813,174.212,108.813
						L174.212,108.813z M169.649,108.813h1.04c0.446,0,0.812-0.363,0.812-0.81l0,0c0-0.446-0.365-0.809-0.812-0.809h-1.04
						c-0.446,0-0.812,0.363-0.812,0.809l0,0C168.838,108.449,169.203,108.813,169.649,108.813L169.649,108.813z M165.085,108.813
						h1.042c0.446,0,0.812-0.363,0.812-0.81l0,0c0-0.446-0.365-0.809-0.812-0.809h-1.042c-0.444,0-0.81,0.363-0.81,0.809l0,0
						C164.275,108.449,164.641,108.813,165.085,108.813L165.085,108.813z M223.561,108.813h1.042c0.446,0,0.81-0.363,0.81-0.81l0,0
						c0-0.446-0.363-0.809-0.81-0.809h-1.042c-0.446,0-0.81,0.363-0.81,0.809l0,0C222.751,108.449,223.114,108.813,223.561,108.813
						L223.561,108.813z M214.436,108.813h1.057c0.431,0,0.793-0.363,0.793-0.81l0,0c0-0.446-0.362-0.809-0.793-0.809h-1.057
						c-0.448,0-0.811,0.363-0.811,0.809l0,0C213.625,108.449,213.987,108.813,214.436,108.813L214.436,108.813z M209.871,108.813
						h1.059c0.445,0,0.793-0.363,0.793-0.81l0,0c0-0.446-0.348-0.809-0.793-0.809h-1.059c-0.446,0-0.809,0.363-0.809,0.809l0,0
						C209.063,108.449,209.425,108.813,209.871,108.813L209.871,108.813z M205.309,108.813h1.059c0.446,0,0.81-0.363,0.81-0.81l0,0
						c0-0.446-0.363-0.809-0.81-0.809h-1.059c-0.448,0-0.809,0.363-0.809,0.809l0,0C204.5,108.449,204.86,108.813,205.309,108.813
						L205.309,108.813z M200.744,108.813h1.061c0.446,0,0.81-0.363,0.81-0.81l0,0c0-0.446-0.363-0.809-0.81-0.809h-1.061
						c-0.446,0-0.809,0.363-0.809,0.809l0,0C199.936,108.449,200.298,108.813,200.744,108.813L200.744,108.813z"/>
					<path fill-rule="evenodd" clip-rule="evenodd" fill="#2D7CB2" d="M169.203,160.59h12.698c0.661,0,1.222-0.543,1.222-1.22l0,0
						c0-0.661-0.561-1.207-1.222-1.207h-8.12l11.242-39.778l0.164-6.911h-3.454l-0.033,0.165l0.826,6.234l-9.804,40.29h-3.52
						c-0.677,0-1.224,0.546-1.224,1.207l0,0C167.979,160.047,168.526,160.59,169.203,160.59L169.203,160.59z M169.203,46.47h12.698
						c0.661,0,1.222,0.547,1.222,1.224l0,0c0,0.66-0.561,1.207-1.222,1.207h-8.12l11.242,39.777l0.164,6.91h-3.454l-0.033-0.166
						l0.826-6.25L172.723,48.9h-3.52c-0.677,0-1.224-0.547-1.224-1.207l0,0C167.979,47.017,168.526,46.47,169.203,46.47
						L169.203,46.47z"/>
					<path fill-rule="evenodd" clip-rule="evenodd" fill="#2D7CB2" d="M236.226,99.572c0.461,0,0.907,0,1.355,0
						c2.13,2.644,1.653,5.273,0,7.902c-0.448,0-0.895,0-1.355,0C237.828,104.912,238.606,102.315,236.226,99.572L236.226,99.572z"/>
				</g>
			</g>
		</g>
	</g>
</g>
<g id="Layer_4" display="none">
	<circle display="inline" fill="#931A1D" cx="150" cy="150" r="146.334"/>
</g>
<g id="Layer_4_copy" display="none">
	<circle display="inline" fill="#931A1D" cx="150" cy="150" r="146.334"/>
</g>
<g id="Layer_4_copy_2" display="none">
	<circle display="inline" fill="#931A1D" cx="150" cy="150" r="146.334"/>
</g>
</svg>
