<?xml version="1.0" encoding="utf-8"?>
<!-- Generator: Adobe Illustrator 16.0.0, SVG Export Plug-In . SVG Version: 6.00 Build 0)  -->
<!DOCTYPE svg PUBLIC "-//W3C//DTD SVG 1.1//EN" "http://www.w3.org/Graphics/SVG/1.1/DTD/svg11.dtd">
<svg version="1.1" xmlns="http://www.w3.org/2000/svg" xmlns:xlink="http://www.w3.org/1999/xlink" x="0px" y="0px" width="500px"
	 height="500px" viewBox="0 0 500 500" enable-background="new 0 0 500 500" xml:space="preserve">
<g id="Layer_3" display="none">
	<rect display="inline" fill="#409AD4" width="500" height="500"/>
</g>
<g id="Layer_4">
	<circle fill="#409AD4" cx="250" cy="250" r="225"/>
</g>
<g id="Layer_1">
	<g>
		
			<line fill="none" stroke="#231F20" stroke-width="6" stroke-linejoin="round" stroke-miterlimit="10" x1="347" y1="206" x2="347" y2="228"/>
		<polyline fill="none" stroke="#231F20" stroke-width="6" stroke-linejoin="round" stroke-miterlimit="10" points="322,270 
			322,228 372,228 372,266 		"/>
		
			<line fill="none" stroke="#231F20" stroke-width="6" stroke-linejoin="round" stroke-miterlimit="10" x1="142" y1="182" x2="142" y2="204"/>
		<polyline fill="none" stroke="#231F20" stroke-width="6" stroke-linejoin="round" stroke-miterlimit="10" points="117,242 
			117,204 168,204 168,243 		"/>
		<g>
			
				<rect x="57" y="235" fill="#A8AAAD" stroke="#231F20" stroke-width="6" stroke-linejoin="round" stroke-miterlimit="10" width="208" height="53"/>
			
				<rect x="57" y="288" fill="#D2D3D4" stroke="#231F20" stroke-width="6" stroke-linejoin="round" stroke-miterlimit="10" width="208" height="55"/>
			
				<rect x="57" y="343" fill="#A8AAAD" stroke="#231F20" stroke-width="6" stroke-linejoin="round" stroke-miterlimit="10" width="208" height="54"/>
			<path fill="#FFFFFF" d="M237.892,314.135c0,6.723-5.449,12.172-12.172,12.172c-6.722,0-12.172-5.449-12.172-12.172
				c0-6.726,5.451-12.173,12.172-12.173C232.443,301.962,237.892,307.409,237.892,314.135z"/>
			<path fill="#FFFFFF" d="M199.226,314.135c0,6.723-5.451,12.172-12.172,12.172c-6.723,0-12.174-5.449-12.174-12.172
				c0-6.726,5.451-12.173,12.174-12.173C193.775,301.962,199.226,307.409,199.226,314.135z"/>
			
				<line fill="none" stroke="#231F20" stroke-width="6" stroke-linejoin="round" stroke-miterlimit="10" x1="87" y1="363" x2="237" y2="363"/>
			
				<line fill="none" stroke="#231F20" stroke-width="6" stroke-linejoin="round" stroke-miterlimit="10" x1="87" y1="377" x2="237" y2="377"/>
			
				<line fill="none" stroke="#231F20" stroke-width="6" stroke-linejoin="round" stroke-miterlimit="10" x1="87" y1="307" x2="87" y2="322"/>
			
				<line fill="none" stroke="#231F20" stroke-width="6" stroke-linejoin="round" stroke-miterlimit="10" x1="101" y1="307" x2="101" y2="322"/>
			
				<line fill="none" stroke="#231F20" stroke-width="6" stroke-linejoin="round" stroke-miterlimit="10" x1="114" y1="307" x2="114" y2="322"/>
			
				<line fill="none" stroke="#231F20" stroke-width="6" stroke-linejoin="round" stroke-miterlimit="10" x1="129" y1="307" x2="129" y2="322"/>
			
				<line fill="none" stroke="#231F20" stroke-width="6" stroke-linejoin="round" stroke-miterlimit="10" x1="143" y1="307" x2="143" y2="322"/>
			
				<line fill="none" stroke="#231F20" stroke-width="6" stroke-linejoin="round" stroke-miterlimit="10" x1="182" y1="315" x2="191" y2="315"/>
			
				<line fill="none" stroke="#231F20" stroke-width="6" stroke-linejoin="round" stroke-miterlimit="10" x1="221" y1="315" x2="229" y2="315"/>
			<rect x="229" y="251" fill="#F2F2F2" width="6" height="19"/>
			<rect x="215" y="251" fill="#F2F2F2" width="6" height="19"/>
			<rect x="200" y="251" fill="#F2F2F2" width="7" height="19"/>
			<rect x="185" y="251" fill="#F2F2F2" width="8" height="19"/>
			<rect x="171" y="251" fill="#F2F2F2" width="7" height="19"/>
			
				<line fill="none" stroke="#231F20" stroke-width="6" stroke-linejoin="round" stroke-miterlimit="10" x1="76" y1="254" x2="161" y2="254"/>
			
				<line fill="none" stroke="#231F20" stroke-width="6" stroke-linejoin="round" stroke-miterlimit="10" x1="76" y1="268" x2="161" y2="268"/>
		</g>
		<g>
			
				<rect x="252" y="266" fill="#A8AAAD" stroke="#231F20" stroke-width="6" stroke-linejoin="round" stroke-miterlimit="10" width="169" height="43"/>
			
				<rect x="252" y="309" fill="#D2D3D4" stroke="#231F20" stroke-width="6" stroke-linejoin="round" stroke-miterlimit="10" width="169" height="45"/>
			
				<rect x="252" y="354" fill="#A8AAAD" stroke="#231F20" stroke-width="6" stroke-linejoin="round" stroke-miterlimit="10" width="169" height="43"/>
			<circle fill="#FFFFFF" cx="284.817" cy="330.058" r="9.908"/>
			<circle fill="#FFFFFF" cx="316.289" cy="330.058" r="9.91"/>
			
				<line fill="none" stroke="#231F20" stroke-width="6" stroke-linejoin="round" stroke-miterlimit="10" x1="397" y1="369" x2="276" y2="369"/>
			
				<line fill="none" stroke="#231F20" stroke-width="6" stroke-linejoin="round" stroke-miterlimit="10" x1="397" y1="380" x2="276" y2="380"/>
			
				<line fill="none" stroke="#231F20" stroke-width="6" stroke-linejoin="round" stroke-miterlimit="10" x1="397" y1="324" x2="397" y2="337"/>
			
				<line fill="none" stroke="#231F20" stroke-width="6" stroke-linejoin="round" stroke-miterlimit="10" x1="386" y1="324" x2="386" y2="337"/>
			
				<line fill="none" stroke="#231F20" stroke-width="6" stroke-linejoin="round" stroke-miterlimit="10" x1="375" y1="324" x2="375" y2="337"/>
			
				<line fill="none" stroke="#231F20" stroke-width="6" stroke-linejoin="round" stroke-miterlimit="10" x1="363" y1="324" x2="363" y2="337"/>
			
				<line fill="none" stroke="#231F20" stroke-width="6" stroke-linejoin="round" stroke-miterlimit="10" x1="352" y1="324" x2="352" y2="337"/>
			
				<line fill="none" stroke="#231F20" stroke-width="6" stroke-linejoin="round" stroke-miterlimit="10" x1="319" y1="330" x2="313" y2="330"/>
			
				<line fill="none" stroke="#231F20" stroke-width="6" stroke-linejoin="round" stroke-miterlimit="10" x1="288" y1="330" x2="282" y2="330"/>
			<rect x="277" y="278" fill="#F2F2F2" width="5" height="17"/>
			<rect x="288" y="278" fill="#F2F2F2" width="5" height="17"/>
			<rect x="299" y="278" fill="#F2F2F2" width="6" height="17"/>
			<rect x="310" y="278" fill="#F2F2F2" width="6" height="17"/>
			<rect x="324" y="278" fill="#F2F2F2" width="5" height="17"/>
			
				<line fill="none" stroke="#231F20" stroke-width="6" stroke-linejoin="round" stroke-miterlimit="10" x1="405" y1="281" x2="336" y2="281"/>
			
				<line fill="none" stroke="#231F20" stroke-width="6" stroke-linejoin="round" stroke-miterlimit="10" x1="405" y1="293" x2="336" y2="293"/>
		</g>
		<g>
			<path fill="#FFFFFF" d="M413.668,174.451c-6.513,0-12.55,1.696-17.537,5.14c-3.381-3.844-8.03-6.688-13.307-7.565
				c0.219-1.479,0.335-3.065,0.335-4.605c0-17.072-13.84-30.949-30.911-30.949c-17.069,0-30.91,13.816-30.91,30.889
				c0,2.518,0.31,4.951,0.878,7.294c-2.286-0.54-4.672-0.197-7.124-0.197c-17.07,0-30.908,12.542-30.908,31.542H444.58
				C444.58,187,430.742,174.451,413.668,174.451z"/>
			<path fill="#D2D3D4" stroke="#231F20" stroke-width="5.8599" stroke-linejoin="round" stroke-miterlimit="10" d="M284.682,204.72
				"/>
			<path fill="#D2D3D4" stroke="#231F20" stroke-width="5.8599" stroke-linejoin="round" stroke-miterlimit="10" d="
				M322.216,174.646c0,0,3.776,3.026,5.014,3.672"/>
			<path fill="#D2D3D4" stroke="#231F20" stroke-width="5.8599" stroke-linejoin="round" stroke-miterlimit="10" d="
				M396.131,179.272c0,0-1.705,2.919-1.778,5.163"/>
		</g>
		<g>
			<path fill="#FFFFFF" d="M275.716,221.81c-4.472,0-8.619,1.405-12.044,3.771c-2.322-2.642-5.517-4.474-9.139-5.077
				c0.148-1.016,0.229-2.049,0.229-3.105c0-11.726-9.508-21.228-21.231-21.228c-11.726,0-21.232,9.505-21.232,21.232
				c0,1.73,0.213,3.408,0.603,5.015c-1.568-0.369-3.208-0.609-4.893-0.609c-11.724,0-21.23,9.19-21.23,21.19h110.171
				C296.949,231,287.443,221.81,275.716,221.81z"/>
			<path fill="#D2D3D4" stroke="#231F20" stroke-width="5.8599" stroke-linejoin="round" stroke-miterlimit="10" d="
				M187.121,243.079"/>
			<path fill="#D2D3D4" stroke="#231F20" stroke-width="5.8599" stroke-linejoin="round" stroke-miterlimit="10" d="
				M212.901,222.422c0,0,2.594,2.078,3.444,2.523"/>
			<path fill="#D2D3D4" stroke="#231F20" stroke-width="5.8599" stroke-linejoin="round" stroke-miterlimit="10" d="M263.672,225.6
				c0,0-1.171,2.005-1.223,3.546"/>
		</g>
		<g>
			<path fill="#FFFFFF" d="M99.165,146.329c7.443,0,14.347,2.132,20.045,6.07c3.866-4.395,9.179-7.548,15.209-8.551
				c-0.25-1.69-0.381-3.455-0.381-5.216c0-19.512,15.82-35.35,35.331-35.35c19.512,0,35.334,15.805,35.334,35.319
				c0,2.879-0.355,5.665-1.004,8.344c2.611-0.618,5.338-0.613,8.144-0.613c19.514,0,35.329,14.668,35.329,35.668H63.832
				C63.832,161,79.649,146.329,99.165,146.329z"/>
			<path fill="#D2D3D4" stroke="#231F20" stroke-width="5.8599" stroke-linejoin="round" stroke-miterlimit="10" d="
				M246.603,181.318"/>
			<path fill="#D2D3D4" stroke="#231F20" stroke-width="5.8599" stroke-linejoin="round" stroke-miterlimit="10" d="M203.7,146.941
				c0,0-4.316,3.459-5.731,4.195"/>
			<path fill="#D2D3D4" stroke="#231F20" stroke-width="5.8599" stroke-linejoin="round" stroke-miterlimit="10" d="M119.21,152.229
				c0,0,1.95,3.336,2.033,5.901"/>
		</g>
	</g>
</g>
<g id="Layer_2" display="none">
	<g display="inline">
		<g id="XMLID_64_">
			<g>
				<path fill="#F2F2F2" d="M375.596,164.222c28.554,0,51.701,24.125,51.701,52.678c0,28.553-23.147,52.678-51.701,52.678h-136.47
					c-28.539,0-51.686-24.125-51.686-52.678c0-28.554,23.147-52.678,51.686-52.678c7.391,0,14.407,1.567,20.776,4.369
					c-1.395-4.672-2.157-9.603-2.157-14.708c0-28.553,23.147-51.701,51.688-51.701c28.552,0,51.699,23.147,51.699,51.701
					c0,4.472-0.633,8.8-1.711,12.954C364.525,165.156,369.945,164.222,375.596,164.222z"/>
			</g>
		</g>
		<g id="XMLID_63_">
			<g>
				<path fill="#33C1D8" d="M276.039,116.296c28.555,0,51.702,24.125,51.702,52.679s-23.147,52.678-51.702,52.678H139.57
					c-28.54,0-51.687-24.125-51.687-52.678s23.147-52.679,51.687-52.679c7.389,0,14.407,1.566,20.775,4.37
					c-1.395-4.673-2.157-9.604-2.157-14.708c0-28.553,23.148-51.701,51.687-51.701c28.554,0,51.701,23.148,51.701,51.701
					c0,4.471-0.632,8.799-1.71,12.954C264.97,117.23,270.389,116.296,276.039,116.296z"/>
			</g>
		</g>
		<g>
			<g>
				<g id="XMLID_65_">
					<g>
						<path fill="#A8AAAD" d="M143.146,235.929v209.813h-34.68c-8.618,0-15.605-6.989-15.605-15.606V251.535
							c0-8.618,6.987-15.606,15.605-15.606H143.146z"/>
						<rect x="143.146" y="235.929" fill="#FFD248" width="228.888" height="209.813"/>
						<path fill="#A8AAAD" d="M420.586,251.535v178.601c0,8.617-6.987,15.606-15.606,15.606h-32.945V235.929h32.945
							C413.599,235.929,420.586,242.917,420.586,251.535z"/>
					</g>
					<g>
						<path fill="none" stroke="#231F20" stroke-width="4.9628" stroke-linejoin="round" stroke-miterlimit="10" d="
							M372.034,445.742h32.945c8.619,0,15.606-6.989,15.606-15.606V251.535c0-8.618-6.987-15.606-15.606-15.606h-32.945"/>
						<path fill="none" stroke="#231F20" stroke-width="4.9628" stroke-linejoin="round" stroke-miterlimit="10" d="
							M143.146,235.929h-34.68c-8.618,0-15.605,6.988-15.605,15.606v178.601c0,8.617,6.987,15.606,15.605,15.606h34.68"/>
						
							<line fill="none" stroke="#231F20" stroke-width="4.9628" stroke-linejoin="round" stroke-miterlimit="10" x1="372.034" y1="235.929" x2="143.146" y2="235.929"/>
						
							<line fill="none" stroke="#231F20" stroke-width="4.9628" stroke-linejoin="round" stroke-miterlimit="10" x1="143.146" y1="445.742" x2="372.034" y2="445.742"/>
					</g>
				</g>
			</g>
			
				<line fill="none" stroke="#231F20" stroke-width="5" stroke-linejoin="round" stroke-miterlimit="10" x1="143.5" y1="254" x2="143.5" y2="432"/>
			
				<line fill="none" stroke="#231F20" stroke-width="5" stroke-linejoin="round" stroke-miterlimit="10" x1="372.5" y1="254" x2="372.5" y2="432"/>
			<circle fill="#D2D3D4" cx="118.293" cy="338.501" r="10.694"/>
			<g>
				<path fill="#D2D3D4" d="M393,342.257c0,1.915,1.085,3.468,3,3.468s3-1.553,3-3.468v-24.275c0-1.917-1.085-3.469-3-3.469
					s-3,1.552-3,3.469V342.257z"/>
				<path fill="#D2D3D4" d="M393,360.175c0,1.917,1.085,3.469,3,3.469s3-1.552,3-3.469v-4.046c0-1.915-1.085-3.468-3-3.468
					s-3,1.553-3,3.468V360.175z"/>
			</g>
			<path fill="#FFC449" d="M345.734,341.102c0,48.521-39.334,87.857-87.856,87.857c-48.521,0-87.854-39.336-87.854-87.857
				c0-48.52,39.334-87.854,87.854-87.854C306.4,253.247,345.734,292.582,345.734,341.102z"/>
		</g>
		<circle opacity="0.3" fill="#FFFFFF" cx="223.777" cy="367.399" r="19.94"/>
		<circle opacity="0.3" fill="#FFFFFF" cx="277.531" cy="161.053" r="19.941"/>
		<g>
			<g>
				<polygon fill="#FFC449" points="287,188 301.664,188 277.198,152.651 252.729,188 266,188 266,406 287,406 				"/>
			</g>
		</g>
		<g>
			<g>
				<polygon fill="#33C1D8" points="215,340 198.976,340 223.441,375.35 247.91,340 236,340 236,122 215,122 				"/>
			</g>
		</g>
		<polyline fill="none" stroke="#231F20" stroke-width="5" stroke-linejoin="round" stroke-miterlimit="10" points="234.5,221 
			234.5,341.5 248,341.5 		"/>
		<polyline fill="none" stroke="#231F20" stroke-width="5" stroke-linejoin="round" stroke-miterlimit="10" points="265.5,269 
			265.5,188.5 253,188.5 		"/>
		<g>
			<polyline fill="#FFFFFF" points="271.462,367.399 307.01,389.942 342.557,367.399 			"/>
			
				<rect x="271.5" y="366.5" fill="none" stroke="#231F20" stroke-width="5" stroke-linejoin="round" stroke-miterlimit="10" width="71" height="45"/>
		</g>
		<g>
			<g>
				<polygon fill="#FFFFFF" points="191,172 217.708,172 191,145.448 				"/>
				<polyline fill="none" stroke="#231F20" stroke-width="5" stroke-linejoin="round" stroke-miterlimit="10" points="218.5,221 
					218.5,171.747 191.408,145.5 128.5,145.5 128.5,221 				"/>
			</g>
			
				<line fill="none" stroke="#231F20" stroke-width="5" stroke-linejoin="round" stroke-miterlimit="10" x1="142" y1="161.5" x2="158" y2="161.5"/>
			
				<line fill="none" stroke="#231F20" stroke-width="5" stroke-linejoin="round" stroke-miterlimit="10" x1="142" y1="172.5" x2="158" y2="172.5"/>
			
				<line fill="none" stroke="#231F20" stroke-width="5" stroke-linejoin="round" stroke-miterlimit="10" x1="142" y1="191.5" x2="187" y2="191.5"/>
			
				<line fill="none" stroke="#231F20" stroke-width="5" stroke-linejoin="round" stroke-miterlimit="10" x1="142" y1="206.5" x2="205" y2="206.5"/>
		</g>
		<g>
			
				<line fill="none" stroke="#231F20" stroke-width="5" stroke-linejoin="round" stroke-miterlimit="10" x1="358" y1="206.5" x2="366" y2="206.5"/>
			
				<line fill="none" stroke="#231F20" stroke-width="5" stroke-linejoin="round" stroke-miterlimit="10" x1="358" y1="190.5" x2="417" y2="190.5"/>
			
				<line fill="none" stroke="#231F20" stroke-width="5" stroke-linejoin="round" stroke-miterlimit="10" x1="358" y1="176.5" x2="417" y2="176.5"/>
			
				<line fill="none" stroke="#231F20" stroke-width="5" stroke-linejoin="round" stroke-miterlimit="10" x1="373" y1="206.5" x2="382" y2="206.5"/>
			
				<line fill="none" stroke="#231F20" stroke-width="5" stroke-linejoin="round" stroke-miterlimit="10" x1="388" y1="206.5" x2="398" y2="206.5"/>
		</g>
		<g>
			<g>
				
					<line fill="none" stroke="#231F20" stroke-width="5" stroke-linejoin="round" stroke-miterlimit="10" x1="245" y1="395.5" x2="237" y2="395.5"/>
				
					<line fill="none" stroke="#231F20" stroke-width="5" stroke-linejoin="round" stroke-miterlimit="10" x1="231" y1="395.5" x2="224" y2="395.5"/>
				
					<line fill="none" stroke="#231F20" stroke-width="5" stroke-linejoin="round" stroke-miterlimit="10" x1="218" y1="395.5" x2="210" y2="395.5"/>
			</g>
			
				<line fill="none" stroke="#231F20" stroke-width="5" stroke-linejoin="round" stroke-miterlimit="10" x1="245" y1="406.5" x2="224" y2="406.5"/>
		</g>
		<g>
			<g>
				
					<line fill="none" stroke="#231F20" stroke-width="5" stroke-linejoin="round" stroke-miterlimit="10" x1="198" y1="287.5" x2="191" y2="287.5"/>
				
					<line fill="none" stroke="#231F20" stroke-width="5" stroke-linejoin="round" stroke-miterlimit="10" x1="184" y1="287.5" x2="177" y2="287.5"/>
				
					<line fill="none" stroke="#231F20" stroke-width="5" stroke-linejoin="round" stroke-miterlimit="10" x1="170" y1="287.5" x2="163" y2="287.5"/>
			</g>
			
				<line fill="none" stroke="#231F20" stroke-width="5" stroke-linejoin="round" stroke-miterlimit="10" x1="198" y1="299.5" x2="177" y2="299.5"/>
		</g>
		<g>
			<g>
				
					<line fill="none" stroke="#231F20" stroke-width="5" stroke-linejoin="round" stroke-miterlimit="10" x1="229" y1="95.5" x2="222" y2="95.5"/>
				
					<line fill="none" stroke="#231F20" stroke-width="5" stroke-linejoin="round" stroke-miterlimit="10" x1="215" y1="95.5" x2="208" y2="95.5"/>
				
					<line fill="none" stroke="#231F20" stroke-width="5" stroke-linejoin="round" stroke-miterlimit="10" x1="202" y1="95.5" x2="194" y2="95.5"/>
			</g>
			
				<line fill="none" stroke="#231F20" stroke-width="5" stroke-linejoin="round" stroke-miterlimit="10" x1="229" y1="106.5" x2="208" y2="106.5"/>
		</g>
		<g>
			<g>
				
					<line fill="none" stroke="#231F20" stroke-width="5" stroke-linejoin="round" stroke-miterlimit="10" x1="309" y1="143.5" x2="316" y2="143.5"/>
				
					<line fill="none" stroke="#231F20" stroke-width="5" stroke-linejoin="round" stroke-miterlimit="10" x1="322" y1="143.5" x2="330" y2="143.5"/>
				
					<line fill="none" stroke="#231F20" stroke-width="5" stroke-linejoin="round" stroke-miterlimit="10" x1="337" y1="143.5" x2="343" y2="143.5"/>
			</g>
			
				<line fill="none" stroke="#231F20" stroke-width="5" stroke-linejoin="round" stroke-miterlimit="10" x1="309" y1="131.5" x2="330" y2="131.5"/>
		</g>
		<g>
			<g>
				
					<line fill="none" stroke="#231F20" stroke-width="5" stroke-linejoin="round" stroke-miterlimit="10" x1="73" y1="197.5" x2="80" y2="197.5"/>
				
					<line fill="none" stroke="#231F20" stroke-width="5" stroke-linejoin="round" stroke-miterlimit="10" x1="86" y1="197.5" x2="94" y2="197.5"/>
				
					<line fill="none" stroke="#231F20" stroke-width="5" stroke-linejoin="round" stroke-miterlimit="10" x1="101" y1="197.5" x2="107" y2="197.5"/>
			</g>
			
				<line fill="none" stroke="#231F20" stroke-width="5" stroke-linejoin="round" stroke-miterlimit="10" x1="73" y1="185.5" x2="94" y2="185.5"/>
		</g>
		<g>
			<g>
				<polygon fill="#F26823" points="266,281 266,334 277,334 277,345.728 292.082,334 355.633,334 355.575,281 				"/>
			</g>
			<g>
				
					<line fill="none" stroke="#231F20" stroke-width="5" stroke-linejoin="round" stroke-miterlimit="10" x1="343" y1="294.5" x2="327" y2="294.5"/>
				
					<line fill="none" stroke="#231F20" stroke-width="5" stroke-linejoin="round" stroke-miterlimit="10" x1="321" y1="294.5" x2="277" y2="294.5"/>
				
					<line fill="none" stroke="#231F20" stroke-width="5" stroke-linejoin="round" stroke-miterlimit="10" x1="343" y1="308.5" x2="335" y2="308.5"/>
				
					<line fill="none" stroke="#231F20" stroke-width="5" stroke-linejoin="round" stroke-miterlimit="10" x1="332" y1="308.5" x2="277" y2="308.5"/>
				
					<line fill="none" stroke="#231F20" stroke-width="5" stroke-linejoin="round" stroke-miterlimit="10" x1="343" y1="318.5" x2="317" y2="318.5"/>
				
					<line fill="none" stroke="#231F20" stroke-width="5" stroke-linejoin="round" stroke-miterlimit="10" x1="313" y1="318.5" x2="295" y2="318.5"/>
			</g>
		</g>
		<g>
			<g>
				<polygon fill="#FFFFFF" points="194,432 194,380 182,380 182,368.266 167.682,380 104.131,380 104.189,432 				"/>
			</g>
			<g>
				
					<line fill="none" stroke="#231F20" stroke-width="5" stroke-linejoin="round" stroke-miterlimit="10" x1="117" y1="419.5" x2="134" y2="419.5"/>
				
					<line fill="none" stroke="#231F20" stroke-width="5" stroke-linejoin="round" stroke-miterlimit="10" x1="139" y1="419.5" x2="182" y2="419.5"/>
				
					<line fill="none" stroke="#231F20" stroke-width="5" stroke-linejoin="round" stroke-miterlimit="10" x1="117" y1="405.5" x2="125" y2="405.5"/>
				
					<line fill="none" stroke="#231F20" stroke-width="5" stroke-linejoin="round" stroke-miterlimit="10" x1="128" y1="405.5" x2="182" y2="405.5"/>
				
					<line fill="none" stroke="#231F20" stroke-width="5" stroke-linejoin="round" stroke-miterlimit="10" x1="117" y1="395.5" x2="142" y2="395.5"/>
				
					<line fill="none" stroke="#231F20" stroke-width="5" stroke-linejoin="round" stroke-miterlimit="10" x1="147" y1="395.5" x2="165" y2="395.5"/>
			</g>
		</g>
	</g>
</g>
</svg>
